<svg xmlns="http://www.w3.org/2000/svg" width="15" height="20" viewBox="0 2 20 12" fill="none">
<path fill-rule="evenodd" clip-rule="evenodd" d="M6.38496 5.09174C5.90507 5.09174 5.51465 5.48216 5.51465 5.96205C5.51465 6.18979 5.60412 6.41754 5.76679 6.58021C5.92947 6.74289 6.14908 6.83236 6.38496 6.83236C6.62084 6.83236 6.84045 6.74289 7.00313 6.58021C7.1658 6.41754 7.25527 6.19793 7.25527 5.96205C7.25527 5.48216 6.86485 5.09174 6.38496 5.09174Z" fill="#000"/>
<path fill-rule="evenodd" clip-rule="evenodd" d="M8.99629 5.09174C8.5164 5.09174 8.12598 5.48216 8.12598 5.96205C8.12598 6.18979 8.21545 6.41754 8.37812 6.58021C8.5408 6.74289 8.76041 6.83236 8.99629 6.83236C9.23217 6.83236 9.45178 6.74289 9.61445 6.58021C9.77713 6.41754 9.8666 6.19793 9.8666 5.96205C9.8666 5.48216 9.47618 5.09174 8.99629 5.09174Z" fill="#000"/>
<path fill-rule="evenodd" clip-rule="evenodd" d="M11.6066 5.09174C11.1267 5.09174 10.7363 5.48216 10.7363 5.96205C10.7363 6.18979 10.8258 6.41754 10.9885 6.58021C11.1511 6.74289 11.3708 6.83236 11.6066 6.83236C11.8425 6.83236 12.0621 6.74289 12.2248 6.58021C12.3875 6.41754 12.477 6.19793 12.477 5.96205C12.477 5.48216 12.0865 5.09174 11.6066 5.09174Z" fill="#000"/>
<path d="M17.1298 11.0375V0.862183H0.862305V10.8748L5.11626 10.9155L9.053 14.8522L12.884 11.0294L17.1298 11.0375Z" stroke="#000" stroke-width="1.5"/>
</svg>